{"title":"DISNEY PIXARS-MONSTERS INC [2001]IN H.264 BY STIG","uid":5051217,"size":843595974,"categoryP":"video","categoryS":"movies","magnet":"?xt=urn:btih:88b4c899834c63cb793fcffec7b54895051f2e4c&amp;dn=DISNEY+PIXARS-MONSTERS+INC+%5B2001%5DIN+H.264+BY+STIG&amp;tr=udp%3A%2F%2Ftracker.openbittorrent.com%3A80&amp;tr=udp%3A%2F%2Fopen.demonii.com%3A1337&amp;tr=udp%3A%2F%2Ftracker.coppersurfer.tk%3A6969&amp;tr=udp%3A%2F%2Fexodus.desync.com%3A6969","seeders":2,"leechers":1,"uploader":"alanwatson","files":4,"time":1250182695,"description":"Monsters, Inc. is the largest scare factory in the monster world and the top Kid-Scarer is James P. Sullivan (John Goodman), a huge, intimidating monster with blue fur, large purple spots and horns, known as &quot;Sulley&quot; to his friends. His Scare Assistant, best friend and roommate is Mike Wazowski (Billy Crystal), a lime green, opinionated, feisty monster. And visiting from the human world is Boo, a tiny girl who turns the monster world upside down and teaches Sulley and Mike that laughter is more powerful than a scream.\n\nFormat : MPEG-4\nFormat profile : Base Media / Version 2\nCodec ID : mp42\nFile size : 800 MiB\nDuration : 1h 28mn\nOverall bit rate : 1 264 Kbps\nEncoded date : UTC 2009-08-11 04:21:50\nTagged date : UTC 2009-08-11 08:37:07\nWriting application : HandBrake 0.9.3 2008112300\n\nVideo\nID : 1\nFormat : AVC\nFormat/Info : Advanced Video Codec\nFormat profile : &lt;a class=&quot;__cf_email__&quot; href=&quot;/cdn-cgi/l/email-protection&quot; data-cfemail=&quot;713c10181f313d455f41&quot;&gt;[email&amp;#160;protected]&lt;/a&gt;&lt;script cf-hash='f9e31' type=&quot;text/javascript&quot;&gt;\n/* &lt;![CDATA[ */!function(){try{var t=&quot;currentScript&quot;in document?document.currentScript:function(){for(var t=document.getElementsByTagName(&quot;script&quot;),e=t.length;e--;)if(t[e].getAttribute(&quot;cf-hash&quot;))return t[e]}();if(t&amp;&amp;t.previousSibling){var e,r,n,i,c=t.previousSibling,a=c.getAttribute(&quot;data-cfemail&quot;);if(a){for(e=&quot;&quot;,r=parseInt(a.substr(0,2),16),n=2;a.length-n;n+=2)i=parseInt(a.substr(n,2),16)^r,e+=String.fromCharCode(i);e=document.createTextNode(e),c.parentNode.replaceChild(e,c)}}}catch(u){}}();/* ]]&gt; */&lt;/script&gt;\nFormat settings, CABAC : Yes\nFormat settings, ReFrames : 3 frames\nCodec ID : avc1\nCodec ID/Info : Advanced Video Coding\nDuration : 1h 28mn\nBit rate mode : Variable\nBit rate : 1 101 Kbps\nWidth : 702 pixels\nHeight : 576 pixels\nDisplay aspect ratio : 1.300\nFrame rate mode : Variable\nFrame rate : 25.000 fps\nMinimum frame rate : 12.500 fps\nMaximum frame rate : 25.505 fps\nResolution : 24 bits\nColorimetry : 4:2:0\nScan type : Progressive\nBits/(Pixel*Frame) : 0.109\nStream size : 696 MiB (87%)\nWriting library : x264 core 65\n\n\nAudio\nID : 2\nFormat : AAC\nFormat/Info : Advanced Audio Codec\nFormat version : Version 4\nFormat profile : LC\nFormat settings, SBR : No\nCodec ID : 40\nDuration : 1h 28mn\nBit rate mode : Variable\nBit rate : 160 Kbps\nMaximum bit rate : 248 Kbps\nChannel(s) : 2 channels\nChannel positions : L R\nSampling rate : 48.0 KHz\nResolution : 16 bits\nStream size : 101 MiB (13%)\nLanguage : English\nEncoded date : UTC 2009-08-11 04:21:50\nTagged date : UTC 2009-08-11 08:37:06","torrent":{"xt":"urn:btih:88b4c899834c63cb793fcffec7b54895051f2e4c","amp;dn":"DISNEY+PIXARS-MONSTERS+INC+%5B2001%5DIN+H.264+BY+STIG","amp;tr":["udp%3A%2F%2Ftracker.openbittorrent.com%3A80","udp%3A%2F%2Fopen.demonii.com%3A1337","udp%3A%2F%2Ftracker.coppersurfer.tk%3A6969","udp%3A%2F%2Fexodus.desync.com%3A6969"],"infoHash":"88b4c899834c63cb793fcffec7b54895051f2e4c","infoHashBuffer":{"type":"Buffer","data":[136,180,200,153,131,76,99,203,121,63,207,254,199,181,72,149,5,31,46,76]},"announce":[],"urlList":[]}}